<svg width="22" height="22" viewBox="0 0 22 22" fill="none" xmlns="http://www.w3.org/2000/svg">
<g clip-path="url(#clip0_3321_10053)">
<path d="M15.0105 15.7871L10.9994 11.776L6.98825 15.7871C6.93759 15.8388 6.87699 15.8796 6.81019 15.9074C6.7434 15.9353 6.67175 15.9497 6.59938 15.9493C6.49039 15.9495 6.38389 15.9174 6.29323 15.857C6.20256 15.7965 6.13186 15.7106 6.0902 15.6099C6.04854 15.5092 6.03762 15.3977 6.05905 15.2908C6.08048 15.184 6.13324 15.0863 6.21051 15.0094L10.2216 10.9983L6.21051 6.98713C6.11032 6.8834 6.05484 6.74462 6.05609 6.60041C6.05735 6.4562 6.11525 6.31782 6.21723 6.21584C6.3192 6.11387 6.45705 6.05596 6.60126 6.05471C6.74547 6.05346 6.88451 6.10921 6.98825 6.2094L10.9994 10.2205L15.0105 6.2094C15.1142 6.10921 15.2533 6.05346 15.3975 6.05471C15.5417 6.05596 15.6796 6.11387 15.7815 6.21584C15.8835 6.31782 15.9414 6.4562 15.9427 6.60041C15.9439 6.74462 15.8884 6.8834 15.7882 6.98713L11.7771 10.9983L15.7882 15.0094C15.8408 15.0601 15.8827 15.1206 15.9115 15.1877C15.9403 15.2548 15.9555 15.3274 15.9561 15.4004C15.9567 15.4734 15.9429 15.5455 15.9153 15.6131C15.8876 15.6807 15.8466 15.7419 15.795 15.7936C15.7433 15.8452 15.6821 15.8862 15.6145 15.9139C15.5469 15.9415 15.4743 15.9553 15.4013 15.9547C15.3282 15.9541 15.2562 15.9395 15.1891 15.9107C15.122 15.8818 15.0612 15.8397 15.0105 15.7871V15.7871Z" fill="white"/>
</g>
<defs>
<clipPath id="clip0_3321_10053">
<rect width="22" height="22" fill="white"/>
</clipPath>
</defs>
</svg>
