<svg width="24" height="24" viewBox="0 0 24 24" fill="none" xmlns="http://www.w3.org/2000/svg">
<path d="M10.5 19.5C10.5 15.0815 6.9185 11.5 2.5 11.5M6.5 19.5C6.5 18.4391 6.07857 17.4217 5.32843 16.6716C4.57828 15.9214 3.56087 15.5 2.5 15.5" stroke="white" stroke-width="2" stroke-linecap="round" stroke-linejoin="round"/>
<path fill-rule="evenodd" clip-rule="evenodd" d="M2.75 20.5C3.08152 20.5 3.39946 20.3683 3.63388 20.1339C3.8683 19.8995 4 19.5815 4 19.25C4 18.9185 3.8683 18.6005 3.63388 18.3661C3.39946 18.1317 3.08152 18 2.75 18C2.41848 18 2.10054 18.1317 1.86612 18.3661C1.6317 18.6005 1.5 18.9185 1.5 19.25C1.5 19.5815 1.6317 19.8995 1.86612 20.1339C2.10054 20.3683 2.41848 20.5 2.75 20.5Z" fill="white"/>
<path d="M2 8.0285V4H22V20H14.3855" stroke="white" stroke-width="2" stroke-linecap="round" stroke-linejoin="round"/>
</svg>
