<svg width="24" height="24" viewBox="0 0 24 24" fill="none" xmlns="http://www.w3.org/2000/svg">
<path d="M12.0001 4.79965C13.4478 4.7996 14.8618 5.23596 16.0578 6.05177C17.2537 6.86759 18.1759 8.02496 18.704 9.37285C19.2322 10.7207 19.3418 12.1965 19.0185 13.6077C18.6951 15.0188 17.954 16.2996 16.8916 17.2831C15.8293 18.2666 14.4952 18.907 13.0634 19.1207C11.6316 19.3345 10.1686 19.1116 8.86534 18.4813C7.5621 17.851 6.47914 16.8424 5.75779 15.5872C5.03645 14.3321 4.71023 12.8886 4.8217 11.4452C4.82769 11.3666 4.81813 11.2876 4.79357 11.2126C4.76901 11.1377 4.72993 11.0683 4.67856 11.0085C4.62719 10.9486 4.56454 10.8995 4.49418 10.8639C4.42382 10.8283 4.34713 10.8068 4.2685 10.8008C4.18986 10.7949 4.11082 10.8044 4.03588 10.829C3.96093 10.8535 3.89156 10.8926 3.83173 10.944C3.77189 10.9954 3.72275 11.058 3.68713 11.1284C3.6515 11.1987 3.63009 11.2754 3.6241 11.354C3.6081 11.5684 3.6001 11.7836 3.6001 11.9996C3.6001 13.9467 4.2765 15.8333 5.51363 17.3368C6.75075 18.8403 8.47177 19.8674 10.3824 20.2424C12.293 20.6174 14.2745 20.317 15.9882 19.3925C17.7018 18.4681 19.0411 16.9771 19.777 15.1745C20.5129 13.3719 20.5998 11.3696 20.0227 9.51001C19.4456 7.65043 18.2404 6.04907 16.6133 4.97976C14.9861 3.91046 13.038 3.43962 11.1021 3.64776C9.16623 3.8559 7.36276 4.73009 6.0001 6.12085V4.19965C6.0001 4.04052 5.93688 3.88791 5.82436 3.77538C5.71184 3.66286 5.55923 3.59965 5.4001 3.59965C5.24097 3.59965 5.08836 3.66286 4.97583 3.77538C4.86331 3.88791 4.8001 4.04052 4.8001 4.19965V7.79965C4.8001 7.95878 4.86331 8.11139 4.97583 8.22391C5.08836 8.33643 5.24097 8.39965 5.4001 8.39965H9.0001C9.15923 8.39965 9.31184 8.33643 9.42436 8.22391C9.53688 8.11139 9.6001 7.95878 9.6001 7.79965C9.6001 7.64052 9.53688 7.48791 9.42436 7.37538C9.31184 7.26286 9.15923 7.19965 9.0001 7.19965H6.6337C7.30806 6.44342 8.13491 5.83857 9.05986 5.42491C9.98481 5.01125 10.9869 4.79816 12.0001 4.79965ZM12.0001 7.79965C12.0001 7.64052 11.9369 7.48791 11.8244 7.37538C11.7118 7.26286 11.5592 7.19965 11.4001 7.19965C11.241 7.19965 11.0884 7.26286 10.9758 7.37538C10.8633 7.48791 10.8001 7.64052 10.8001 7.79965V12.5996C10.8001 12.7588 10.8633 12.9114 10.9758 13.0239C11.0884 13.1364 11.241 13.1996 11.4001 13.1996H15.0001C15.1592 13.1996 15.3118 13.1364 15.4244 13.0239C15.5369 12.9114 15.6001 12.7588 15.6001 12.5996C15.6001 12.4405 15.5369 12.2879 15.4244 12.1754C15.3118 12.0629 15.1592 11.9996 15.0001 11.9996H12.0001V7.79965Z" fill="#6B6B6B"/>
</svg>
