<svg width="24" height="24" viewBox="0 0 24 24" fill="none" xmlns="http://www.w3.org/2000/svg">
<path d="M5.99024 4.92816C6.13069 5.06879 6.20958 5.25941 6.20958 5.45816C6.20958 5.65691 6.13069 5.84754 5.99024 5.98816C5.20091 6.77746 4.57478 7.71451 4.1476 8.74579C3.72042 9.77708 3.50055 10.8824 3.50055 11.9987C3.50055 13.1149 3.72042 14.2202 4.1476 15.2515C4.57478 16.2828 5.20091 17.2199 5.99024 18.0092C6.12679 18.1507 6.2023 18.3402 6.2005 18.5368C6.1987 18.7335 6.11973 18.9215 5.98061 19.0605C5.84149 19.1995 5.65334 19.2783 5.45669 19.2799C5.26004 19.2815 5.07063 19.2058 4.92924 19.0692C1.02424 15.1642 1.02424 8.83316 4.92924 4.92816C5.06986 4.78771 5.26049 4.70882 5.45924 4.70882C5.65799 4.70882 5.84961 4.78771 5.99024 4.92816ZM19.0702 4.92816C22.9752 8.83316 22.9752 15.1652 19.0702 19.0702C18.9281 19.2026 18.74 19.2748 18.5457 19.2713C18.3514 19.2679 18.166 19.1892 18.0286 19.0518C17.8912 18.9144 17.8125 18.729 17.8091 18.5347C17.8056 18.3404 17.8778 18.1523 18.0102 18.0102C18.7997 17.2208 19.426 16.2837 19.8532 15.2524C20.2805 14.221 20.5004 13.1155 20.5004 11.9992C20.5004 10.8828 20.2805 9.77734 19.8532 8.74597C19.426 7.71459 18.7997 6.77748 18.0102 5.98816C17.9366 5.9195 17.8775 5.8367 17.8365 5.7447C17.7955 5.6527 17.7734 5.55339 17.7716 5.45268C17.7699 5.35198 17.7884 5.25195 17.8261 5.15856C17.8638 5.06518 17.92 4.98034 17.9912 4.90912C18.0624 4.8379 18.1473 4.78176 18.2406 4.74404C18.334 4.70632 18.4341 4.68779 18.5348 4.68957C18.6355 4.69135 18.7348 4.71339 18.8268 4.75438C18.9188 4.79537 19.0016 4.85447 19.0702 4.92816ZM8.81824 7.75616C8.95869 7.89679 9.03758 8.08741 9.03758 8.28616C9.03758 8.48491 8.95869 8.67554 8.81824 8.81616C8.40022 9.23404 8.06862 9.73019 7.84238 10.2762C7.61614 10.8223 7.4997 11.4076 7.4997 11.9987C7.4997 12.5897 7.61614 13.175 7.84238 13.7211C8.06862 14.2671 8.40022 14.7633 8.81824 15.1812C8.95072 15.3233 9.02284 15.5114 9.01941 15.7057C9.01598 15.9 8.93727 16.0854 8.79986 16.2228C8.66245 16.3602 8.47706 16.4389 8.28276 16.4423C8.08846 16.4458 7.90041 16.3736 7.75824 16.2412C6.63311 15.116 6.00102 13.5899 6.00102 11.9987C6.00102 10.4074 6.63311 8.88137 7.75824 7.75616C7.89886 7.61571 8.08949 7.53682 8.28824 7.53682C8.48699 7.53682 8.67761 7.61571 8.81824 7.75616ZM16.2432 7.75616C17.3684 8.88137 18.0005 10.4074 18.0005 11.9987C18.0005 13.5899 17.3684 15.116 16.2432 16.2412C16.1741 16.3128 16.0914 16.37 15.9999 16.4094C15.9084 16.4487 15.81 16.4694 15.7104 16.4703C15.6108 16.4713 15.512 16.4523 15.4199 16.4147C15.3277 16.377 15.2439 16.3213 15.1735 16.251C15.103 16.1806 15.0473 16.0969 15.0095 16.0047C14.9718 15.9126 14.9527 15.8138 14.9536 15.7142C14.9544 15.6146 14.975 15.5162 15.0143 15.4247C15.0535 15.3332 15.1106 15.2504 15.1822 15.1812C15.6001 14.7633 15.9316 14.2672 16.1577 13.7212C16.3839 13.1753 16.5003 12.5901 16.5003 11.9992C16.5003 11.4082 16.3839 10.823 16.1577 10.2771C15.9316 9.73111 15.6001 9.23503 15.1822 8.81716C15.0498 8.67499 14.9776 8.48694 14.9811 8.29264C14.9845 8.09834 15.0632 7.91295 15.2006 7.77554C15.338 7.63813 15.5234 7.55942 15.7177 7.55599C15.912 7.55256 16.1001 7.62468 16.2422 7.75716M12.0002 10.4992C12.3981 10.4992 12.7796 10.6572 13.0609 10.9385C13.3422 11.2198 13.5002 11.6013 13.5002 11.9992C13.5002 12.397 13.3422 12.7785 13.0609 13.0598C12.7796 13.3411 12.3981 13.4992 12.0002 13.4992C11.6024 13.4992 11.2209 13.3411 10.9396 13.0598C10.6583 12.7785 10.5002 12.397 10.5002 11.9992C10.5002 11.6013 10.6583 11.2198 10.9396 10.9385C11.2209 10.6572 11.6024 10.4992 12.0002 10.4992Z" fill="#6B6B6B"/>
</svg>
