<svg width="24" height="24" viewBox="0 0 24 24" fill="none" xmlns="http://www.w3.org/2000/svg">
<path d="M6.34279 4.93759C6.43576 5.03046 6.50952 5.14075 6.55984 5.26215C6.61017 5.38355 6.63607 5.51367 6.63607 5.64509C6.63607 5.7765 6.61017 5.90663 6.55984 6.02803C6.50952 6.14943 6.43576 6.25971 6.34279 6.35259C4.84222 7.8534 3.99924 9.88879 3.99924 12.0111C3.99924 14.1334 4.84222 16.1688 6.34279 17.6696C6.4383 17.7618 6.51448 17.8722 6.56689 17.9942C6.6193 18.1162 6.64688 18.2474 6.64804 18.3802C6.64919 18.513 6.62389 18.6446 6.57361 18.7675C6.52333 18.8904 6.44907 19.0021 6.35518 19.096C6.26129 19.1899 6.14964 19.2641 6.02674 19.3144C5.90384 19.3647 5.77216 19.39 5.63938 19.3888C5.5066 19.3877 5.37538 19.3601 5.25338 19.3077C5.13138 19.2553 5.02103 19.1791 4.92879 19.0836C1.02179 15.1776 1.02179 8.84359 4.92879 4.93759C5.11631 4.75012 5.37062 4.6448 5.63579 4.6448C5.90095 4.6448 6.15526 4.75012 6.34279 4.93759ZM19.0748 4.93759C22.9808 8.84459 22.9808 15.1776 19.0748 19.0836C18.8873 19.2712 18.6329 19.3767 18.3676 19.3768C18.1024 19.3769 17.8479 19.2716 17.6603 19.0841C17.4726 18.8966 17.3672 18.6422 17.3671 18.3769C17.367 18.1117 17.4723 17.8572 17.6598 17.6696C19.1603 16.1688 20.0033 14.1334 20.0033 12.0111C20.0033 9.88879 19.1603 7.8534 17.6598 6.35259C17.4721 6.16495 17.3667 5.91045 17.3667 5.64509C17.3667 5.37972 17.4721 5.12523 17.6598 4.93759C17.8474 4.74995 18.1019 4.64453 18.3673 4.64453C18.6326 4.64453 18.8871 4.74995 19.0748 4.93759ZM9.30979 7.81159C9.49726 7.99912 9.60257 8.25342 9.60257 8.51859C9.60257 8.78375 9.49726 9.03806 9.30979 9.22559C8.94574 9.5896 8.65696 10.0218 8.45993 10.4974C8.26291 10.973 8.1615 11.4828 8.1615 11.9976C8.1615 12.5124 8.26291 13.0222 8.45993 13.4978C8.65696 13.9734 8.94574 14.4056 9.30979 14.7696C9.40263 14.8625 9.47627 14.9728 9.52649 15.0942C9.57671 15.2155 9.60253 15.3456 9.60249 15.4769C9.60244 15.6083 9.57652 15.7383 9.52622 15.8597C9.47591 15.981 9.4022 16.0912 9.30929 16.1841C9.21637 16.2769 9.10609 16.3506 8.98472 16.4008C8.86335 16.451 8.73328 16.4768 8.60193 16.4768C8.47058 16.4767 8.34053 16.4508 8.2192 16.4005C8.09787 16.3502 7.98763 16.2765 7.89479 16.1836C6.78461 15.0734 6.16093 13.5676 6.16093 11.9976C6.16093 10.4275 6.78461 8.9218 7.89479 7.81159C7.98766 7.71861 8.09795 7.64485 8.21935 7.59453C8.34074 7.5442 8.47087 7.5183 8.60229 7.5183C8.7337 7.5183 8.86383 7.5442 8.98523 7.59453C9.10662 7.64485 9.21691 7.71861 9.30979 7.81159ZM16.2678 7.81159C17.378 8.9218 18.0016 10.4275 18.0016 11.9976C18.0016 13.5676 17.378 15.0734 16.2678 16.1836C16.0792 16.3657 15.8266 16.4665 15.5644 16.4643C15.3022 16.462 15.0514 16.3568 14.866 16.1714C14.6806 15.986 14.5754 15.7352 14.5731 15.473C14.5708 15.2108 14.6716 14.9582 14.8538 14.7696C15.2178 14.4056 15.5066 13.9734 15.7036 13.4978C15.9007 13.0222 16.0021 12.5124 16.0021 11.9976C16.0021 11.4828 15.9007 10.973 15.7036 10.4974C15.5066 10.0218 15.2178 9.5896 14.8538 9.22559C14.6716 9.03699 14.5708 8.78438 14.5731 8.52219C14.5754 8.25999 14.6806 8.00918 14.866 7.82377C15.0514 7.63836 15.3022 7.53319 15.5644 7.53091C15.8266 7.52863 16.0792 7.62943 16.2678 7.81159ZM12.0818 10.5816C12.4796 10.5816 12.8611 10.7396 13.1424 11.0209C13.4238 11.3022 13.5818 11.6838 13.5818 12.0816C13.5818 12.4794 13.4238 12.8609 13.1424 13.1422C12.8611 13.4236 12.4796 13.5816 12.0818 13.5816C11.684 13.5816 11.3024 13.4236 11.0211 13.1422C10.7398 12.8609 10.5818 12.4794 10.5818 12.0816C10.5818 11.6838 10.7398 11.3022 11.0211 11.0209C11.3024 10.7396 11.684 10.5816 12.0818 10.5816Z" fill="white"/>
</svg>
