<svg width="24" height="24" viewBox="0 0 24 24" fill="none" xmlns="http://www.w3.org/2000/svg">
<path fill-rule="evenodd" clip-rule="evenodd" d="M17.2501 10.4991C17.2501 11.3855 17.0755 12.2633 16.7363 13.0822C16.3971 13.9012 15.8999 14.6453 15.2731 15.2721C14.6463 15.8989 13.9021 16.3961 13.0832 16.7353C12.2643 17.0745 11.3865 17.2491 10.5001 17.2491C9.61367 17.2491 8.73592 17.0745 7.91698 16.7353C7.09803 16.3961 6.35391 15.8989 5.72712 15.2721C5.10032 14.6453 4.60312 13.9012 4.2639 13.0822C3.92468 12.2633 3.75009 11.3855 3.75009 10.4991C3.75009 8.7089 4.46125 6.99201 5.72712 5.72614C6.99299 4.46027 8.70988 3.74911 10.5001 3.74911C12.2903 3.74911 14.0072 4.46027 15.2731 5.72614C16.5389 6.99201 17.2501 8.7089 17.2501 10.4991ZM16.0201 17.6091C14.2117 19.0131 11.9361 19.6751 9.65679 19.4603C7.37744 19.2456 5.26561 18.1702 3.75121 16.4532C2.23682 14.7362 1.43372 12.5066 1.50539 10.2182C1.57707 7.92992 2.51814 5.75492 4.13702 4.13604C5.7559 2.51716 7.93089 1.57609 10.2192 1.50442C12.5075 1.43274 14.7372 2.23585 16.4542 3.75024C18.1712 5.26463 19.2466 7.37646 19.4613 9.65581C19.676 11.9352 19.0141 14.2107 17.6101 16.0191L22.1701 20.5791C22.2806 20.6821 22.3693 20.8063 22.4308 20.9443C22.4922 21.0823 22.5253 21.2313 22.528 21.3823C22.5306 21.5334 22.5029 21.6834 22.4463 21.8235C22.3897 21.9636 22.3055 22.0908 22.1986 22.1977C22.0918 22.3045 21.9646 22.3887 21.8245 22.4453C21.6844 22.5019 21.5344 22.5297 21.3833 22.527C21.2323 22.5243 21.0833 22.4913 20.9453 22.4298C20.8073 22.3683 20.6831 22.2796 20.5801 22.1691L16.0201 17.6091Z" fill="white"/>
</svg>
