<svg width="24" height="24" viewBox="0 0 24 24" fill="none" xmlns="http://www.w3.org/2000/svg">
<path d="M10.1469 2.02054C11.7148 2.00459 13.2548 2.43577 14.5864 3.26357C15.918 4.09137 16.9862 5.2815 17.6657 6.69455C18.3453 8.10759 18.6081 9.68503 18.4234 11.2421C18.2386 12.7991 17.614 14.2713 16.6227 15.4861L22.3697 21.1185C22.4693 21.2092 22.5426 21.3251 22.582 21.454C22.6213 21.5828 22.6251 21.7199 22.593 21.8507C22.561 21.9816 22.4942 22.1014 22.3998 22.1975C22.3054 22.2936 22.1868 22.3624 22.0565 22.3968C21.9265 22.4314 21.7895 22.4304 21.66 22.3938C21.5305 22.3573 21.4132 22.2866 21.3204 22.1892L15.5734 16.5567C14.5638 17.4146 13.3625 18.0168 12.0709 18.3123C10.7794 18.6078 9.4357 18.5879 8.15349 18.2542C6.87129 17.9206 5.68829 17.2831 4.70458 16.3956C3.72087 15.508 2.96538 14.3967 2.50201 13.1554C2.03865 11.9142 1.88104 10.5796 2.04252 9.26459C2.204 7.94957 2.67982 6.69277 3.42973 5.60052C4.17963 4.50828 5.18157 3.6127 6.35079 2.98956C7.52 2.36642 8.8221 2.03404 10.1469 2.02054ZM3.48026 10.338C3.48918 11.2244 3.67259 12.1003 4.02004 12.9158C4.36748 13.7313 4.87214 14.4704 5.50521 15.0909C6.13827 15.7113 6.88735 16.201 7.70967 16.532C8.53199 16.8629 9.41145 17.0287 10.2978 17.0198C11.1842 17.0109 12.0601 16.8274 12.8756 16.48C13.6911 16.1326 14.4302 15.6279 15.0507 14.9948C15.6711 14.3618 16.1608 13.6127 16.4918 12.7904C16.8227 11.9681 16.9885 11.0886 16.9796 10.2022C16.9616 8.4121 16.2332 6.70245 14.9546 5.44938C13.6761 4.1963 11.9521 3.50245 10.162 3.52046C8.3719 3.53847 6.66225 4.26686 5.40918 5.5454C4.15611 6.82394 3.46226 8.5479 3.48026 10.338Z" fill="#6B6B6B"/>
</svg>
