<svg viewBox="0 0 104 88" fill="none" xmlns="http://www.w3.org/2000/svg"><g fill="#fff" clip-path="url(#ranking_20_svg__clip0_1448_26013)"><path d="M45.205 76.117h-26.82c1.989-13.261 29.988-28.18 32.998-48.247l1.073-7.155C53.96 10.682 47.143 3.79 35.409 3.79c-14.204 0-22.894 7.94-24.57 19.107L9.074 34.675h14.028l1.701-11.342c.746-4.973 3.949-7.503 7.742-7.503 3.353 0 5.712 1.919 4.913 7.241L36.358 30.4C34.147 45.145 4.746 55.876.598 83.533l-.536 3.578h43.494l1.649-10.994zM80.453 2.625c-12.97 0-21.656 7.33-23.697 20.94l-6.36 42.402c-2.041 13.61 4.345 21.026 17.403 21.026 13.057 0 21.844-7.415 23.886-21.026l6.36-42.402c2.041-13.61-4.535-20.94-17.592-20.94zM76.87 67.101c-.825 5.497-3.825 7.852-7.266 7.852-3.352 0-5.544-2.443-4.733-7.852l6.7-44.67c.811-5.41 3.9-7.766 7.164-7.766 3.44 0 5.646 2.356 4.835 7.765l-6.7 44.671z"></path></g><defs><clipPath id="ranking_20_svg__clip0_1448_26013"><path fill="#fff" transform="translate(0 .108)" d="M0 0h103.312v87H0z"></path></clipPath></defs></svg>