<svg viewBox="0 0 82 88" fill="none" xmlns="http://www.w3.org/2000/svg"><g fill="#fff" clip-path="url(#ranking_19_svg__clip0_1448_25983)"><path d="M21.313 4.307C19 10.327 15.691 15.911 3.977 16.958l-1.256 8.376h10.234L3.69 87.104h14.557L30.665 4.307h-9.352zM58.339 45.576h.706l-3.52 23.47c-.51 3.402-3.02 6.02-6.902 6.02-3.529 0-5.685-2.095-4.926-7.155l1.53-10.208H31.29l-1.544 10.295c-1.832 12.215 4.28 19.107 17.425 19.107 12.086 0 21.213-7.329 23.255-20.939l6.36-42.402c2.093-13.96-4.46-20.852-17.429-20.852-12.968 0-21.844 7.416-23.78 20.329l-1.937 12.912C32.003 47.06 37.593 52.73 44.827 52.73c6.175 0 10.022-2.705 13.512-7.154zm-7.69-24.604c.523-3.49 3.474-6.107 6.826-6.107 3.794 0 5.849 2.181 5.103 7.154L60.68 34.67c-.615 4.102-3.49 6.806-6.931 6.806-3.617 0-5.77-2.705-5.155-6.805l2.055-13.698z"></path></g><defs><clipPath id="ranking_19_svg__clip0_1448_25983"><path fill="#fff" transform="translate(.063 .108)" d="M0 0h81.563v87H0z"></path></clipPath></defs></svg>