<svg viewBox="0 0 83 88" fill="none" xmlns="http://www.w3.org/2000/svg"><g fill="#fff" clip-path="url(#ranking_18_svg__clip0_1448_25984)"><path d="M21.752 4.307c-2.315 6.02-5.623 11.604-17.337 12.651l-1.257 8.376h10.235l-9.265 61.77h14.557L31.104 4.308h-9.352zM42.28 42.522l-.105.698c-6.6 1.658-11.205 7.067-12.41 15.094l-1.557 10.382c-1.819 12.127 5.62 18.41 18.502 18.41 12.88 0 22.116-6.282 23.935-18.41l1.557-10.382c1.309-8.725-1.765-13.523-8.058-15.094l.091-.61c6.68-2.182 10.514-7.155 11.613-14.484l1.243-8.288c1.466-9.772-4.696-16.926-17.753-16.926-13.058 0-21.365 7.154-22.83 16.926l-1.244 8.288c-1.086 7.242 1.167 12.215 7.016 14.396zm18.807-11.865c-.64 4.275-2.85 7.241-6.997 7.241-3.97 0-5.554-2.966-4.913-7.241l1.295-8.638c.629-4.188 3.015-7.154 7.073-7.154 4.147 0 5.466 2.966 4.838 7.154l-1.296 8.638zM56.17 67.562c-.667 4.45-3.167 7.59-7.667 7.59-4.235 0-6.057-3.14-5.39-7.59l1.806-12.04c.68-4.537 3.432-7.59 7.667-7.59 4.5 0 6.07 3.053 5.39 7.59l-1.806 12.04z"></path></g><defs><clipPath id="ranking_18_svg__clip0_1448_25984"><path fill="#fff" transform="translate(.5 .108)" d="M0 0h81.563v87H0z"></path></clipPath></defs></svg>