<svg width="77" height="24" viewBox="0 0 77 24" fill="none" xmlns="http://www.w3.org/2000/svg">
<g clip-path="url(#clip0_3310_7915)">
<mask id="mask0_3310_7915" style="mask-type:luminance" maskUnits="userSpaceOnUse" x="0" y="2" width="77" height="20">
<path d="M0 2.78711H76.7148V21.214H0V2.78711Z" fill="white"/>
</mask>
<g mask="url(#mask0_3310_7915)">
<path d="M50.2627 13.1716L53.999 20.5576H59.8046V3.23047H54.2466V10.4433C54.2468 10.5524 54.2093 10.6582 54.1403 10.7437C54.0712 10.8292 53.9746 10.8893 53.8663 10.9142C53.7579 10.939 53.6441 10.9272 53.5435 10.8806C53.4429 10.834 53.3613 10.7554 53.3121 10.6576L49.5566 3.23047H43.751V20.5568H49.3256V13.385C49.3256 13.2761 49.3632 13.1703 49.4323 13.085C49.5015 12.9996 49.5981 12.9397 49.7064 12.915C49.8147 12.8902 49.9284 12.9021 50.0289 12.9487C50.1294 12.9953 50.2109 13.0739 50.2601 13.1716" fill="#FF153C"/>
<path d="M35.1533 3.23047H41.2494V20.5568H35.1533V3.23047Z" fill="#FF153C"/>
<path d="M61.6062 10.2537V13.4475C61.6062 16.5537 62.8024 18.7995 65.1605 20.1212C68.923 22.2306 74.341 20.9286 76.7157 19.2083V11.1452H71.2102V16.216L71.1052 16.2563C70.6679 16.4225 70.1982 16.4907 69.7305 16.4558C69.2628 16.4209 68.809 16.284 68.4024 16.0549C68.0196 15.7524 67.7205 15.3607 67.5325 14.9157C67.3445 14.4706 67.2735 13.9864 67.3261 13.5075V9.93402C67.2713 9.46992 67.3904 9.0021 67.6612 8.61756C67.9321 8.23302 68.3363 7.95793 68.7987 7.84345C69.3017 7.72479 69.832 7.79765 70.2822 8.04731C70.7325 8.29696 71.0692 8.70478 71.2242 9.18831L76.5573 6.38631C75.8782 5.23038 74.8848 4.2818 73.6878 3.6462C72.4909 3.01059 71.1373 2.71292 69.7779 2.78631C69.4182 2.78631 69.0682 2.80345 68.7349 2.8326C66.9322 2.93812 65.2119 3.60853 63.8279 4.74488C63.0783 5.45487 62.4926 6.31385 62.1101 7.26405C61.7277 8.21426 61.5574 9.23367 61.6106 10.2537" fill="#FF153C"/>
<path d="M15.1261 3.23047H0V8.30304H4.55V20.5602H10.5674V8.30304H15.1217L15.1261 3.23047Z" fill="#FF153C"/>
<path d="M22.1079 20.753L25.9194 9.15162C25.9548 9.04146 26.0293 8.94739 26.1295 8.8865C26.2297 8.82561 26.3489 8.80193 26.4653 8.81978C26.5818 8.83762 26.6879 8.89579 26.7644 8.98374C26.8408 9.07168 26.8825 9.18356 26.8819 9.29905L26.8819 20.7539L32.6621 20.7539L32.6621 3.42676L21.7325 3.42676L15.7501 20.753L22.1079 20.753Z" fill="#FF153C"/>
</g>
</g>
<defs>
<clipPath id="clip0_3310_7915">
<rect width="77" height="24" fill="white"/>
</clipPath>
</defs>
</svg>
