<svg width="24" height="24" viewBox="0 0 24 24" fill="none" xmlns="http://www.w3.org/2000/svg">
<path d="M12 3C16.9707 3 21 7.0293 21 12C21 16.9707 16.9707 21 12 21C7.0293 21 3 16.9707 3 12C3 7.0293 7.0293 3 12 3ZM13.9863 9.1533L12.009 11.127L10.0335 9.1533C9.93079 9.05002 9.79462 8.98675 9.64945 8.97488C9.50428 8.963 9.35963 9.00329 9.2415 9.0885L9.1659 9.1533C9.10876 9.21017 9.06341 9.27777 9.03247 9.35221C9.00153 9.42666 8.9856 9.50648 8.9856 9.5871C8.9856 9.66772 9.00153 9.74754 9.03247 9.82199C9.06341 9.89643 9.10876 9.96403 9.1659 10.0209L11.1414 11.9946L9.1659 13.9683C9.05073 14.0834 8.98598 14.2394 8.9859 14.4022C8.98585 14.4828 9.00169 14.5627 9.0325 14.6371C9.06331 14.7116 9.10848 14.7793 9.16545 14.8364C9.22242 14.8934 9.29006 14.9386 9.36451 14.9695C9.43897 15.0004 9.51878 15.0163 9.59938 15.0164C9.76217 15.0164 9.91833 14.9519 10.0335 14.8368L12.009 12.8613L13.9863 14.8368C14.2023 15.0528 14.538 15.0735 14.7783 14.9007L14.8539 14.8359C14.911 14.779 14.9564 14.7114 14.9873 14.637C15.0183 14.5625 15.0342 14.4827 15.0342 14.4021C15.0342 14.3215 15.0183 14.2417 14.9873 14.1672C14.9564 14.0928 14.911 14.0252 14.8539 13.9683L12.8775 11.9946L14.853 10.0209C14.9596 9.9043 15.0171 9.7511 15.0136 9.59317C15.0101 9.43524 14.9458 9.28475 14.8342 9.17299C14.7226 9.06123 14.5721 8.99682 14.4142 8.99315C14.2563 8.98948 14.103 9.04684 13.9863 9.1533Z" fill="white"/>
</svg>
