<svg width="30" height="30" viewBox="0 0 30 30" fill="none" xmlns="http://www.w3.org/2000/svg">
<rect width="30" height="30" rx="15" fill="#2B2B2B"/>
<g clip-path="url(#clip0_82_8047)">
<path d="M23.6485 10.5408C23.4409 9.74135 22.8292 9.11171 22.0525 8.89804C20.6448 8.50977 15 8.50977 15 8.50977C15 8.50977 9.35525 8.50977 7.94749 8.89804C7.17085 9.11175 6.55917 9.74135 6.35156 10.5408C5.97437 11.9899 5.97437 15.0133 5.97437 15.0133C5.97437 15.0133 5.97437 18.0366 6.35156 19.4857C6.55917 20.2852 7.17085 20.8886 7.94749 21.1023C9.35525 21.4905 15 21.4905 15 21.4905C15 21.4905 20.6448 21.4905 22.0525 21.1023C22.8292 20.8886 23.4409 20.2852 23.6485 19.4857C24.0257 18.0366 24.0257 15.0133 24.0257 15.0133C24.0257 15.0133 24.0257 11.9899 23.6485 10.5408ZM13.1538 17.7583V12.2683L17.8718 15.0133L13.1538 17.7583Z" fill="#6B6B6B"/>
</g>
<defs>
<clipPath id="clip0_82_8047">
<rect width="19.0385" height="17.3077" fill="white" transform="translate(5.48071 6.3457)"/>
</clipPath>
</defs>
</svg>
