<svg width="24" height="24" viewBox="0 0 24 24" fill="none" xmlns="http://www.w3.org/2000/svg">
<rect width="24" height="24" rx="12" fill="#2B2B2B"/>
<g clip-path="url(#clip0_82_8019)">
<path d="M18.9186 8.43148C18.7525 7.79191 18.2632 7.2882 17.6418 7.11726C16.5157 6.80664 11.9998 6.80664 11.9998 6.80664C11.9998 6.80664 7.484 6.80664 6.3578 7.11726C5.73648 7.28823 5.24714 7.79191 5.08106 8.43148C4.7793 9.59075 4.7793 12.0094 4.7793 12.0094C4.7793 12.0094 4.7793 14.4281 5.08106 15.5874C5.24714 16.227 5.73648 16.7097 6.3578 16.8806C7.484 17.1913 11.9998 17.1913 11.9998 17.1913C11.9998 17.1913 16.5156 17.1913 17.6418 16.8806C18.2632 16.7097 18.7525 16.227 18.9186 15.5874C19.2203 14.4281 19.2203 12.0094 19.2203 12.0094C19.2203 12.0094 19.2203 9.59075 18.9186 8.43148ZM10.5229 14.2054V9.81345L14.2972 12.0095L10.5229 14.2054Z" fill="#6B6B6B"/>
</g>
<defs>
<clipPath id="clip0_82_8019">
<rect width="15.2308" height="13.8462" fill="white" transform="translate(4.38452 5.07617)"/>
</clipPath>
</defs>
</svg>
