<svg width="28" height="28" viewBox="0 0 28 28" fill="none" xmlns="http://www.w3.org/2000/svg">
<g clip-path="url(#clip0_3321_10041)">
<path d="M19.1044 20.0938L13.9993 14.9887L8.89424 20.0938C8.82977 20.1596 8.75264 20.2114 8.66763 20.2469C8.58262 20.2824 8.49143 20.3007 8.39932 20.3002C8.26061 20.3005 8.12506 20.2596 8.00967 20.1826C7.89428 20.1057 7.8043 19.9964 7.75127 19.8682C7.69825 19.74 7.68435 19.5981 7.71162 19.4621C7.7389 19.3261 7.80605 19.2018 7.9044 19.1039L13.0095 13.9989L7.9044 8.89378C7.77689 8.76175 7.70627 8.58513 7.70786 8.40159C7.70946 8.21805 7.78316 8.04192 7.91294 7.91214C8.04273 7.78235 8.21817 7.70865 8.40171 7.70706C8.58525 7.70546 8.76222 7.77642 8.89424 7.90393L13.9993 13.009L19.1044 7.90393C19.2364 7.77642 19.4134 7.70546 19.5969 7.70706C19.7805 7.70865 19.9559 7.78235 20.0857 7.91214C20.2155 8.04192 20.2892 8.21805 20.2908 8.40159C20.2924 8.58513 20.2218 8.76175 20.0942 8.89378L14.9892 13.9989L20.0942 19.1039C20.1611 19.1685 20.2144 19.2455 20.2511 19.3309C20.2878 19.4163 20.3071 19.5086 20.3079 19.6016C20.3087 19.6945 20.2911 19.7863 20.2559 19.8723C20.2207 19.9583 20.1685 20.0363 20.1028 20.102C20.0371 20.1677 19.9591 20.2199 19.8731 20.2551C19.7871 20.2903 19.6947 20.3079 19.6017 20.3071C19.5088 20.3063 19.4171 20.2877 19.3317 20.251C19.2463 20.2143 19.169 20.1606 19.1044 20.0938V20.0938Z" fill="#C4C4C4"/>
</g>
<defs>
<clipPath id="clip0_3321_10041">
<rect width="28" height="28" fill="white"/>
</clipPath>
</defs>
</svg>
