<svg width="32" height="32" viewBox="0 0 32 32" fill="none" xmlns="http://www.w3.org/2000/svg">
<path fill-rule="evenodd" clip-rule="evenodd" d="M12.9808 3.89429H18.1731V4.37068C18.5742 8.82698 19.9008 9.63373 23.9482 7.74568L24.396 7.48736L26.9922 11.9839L26.7391 12.1299C22.9072 14.791 22.8676 16.3545 26.6962 18.9987L26.9928 19.1701L26.9799 19.1921L24.3967 23.6666L23.9021 23.381C19.7775 21.4949 18.5203 22.423 18.1906 27.2752L18.1731 27.063V27.2597H12.9808V26.5029C12.5459 22.2024 11.1505 21.5442 7.03946 23.5043L6.75777 23.6666L4.16162 19.1701L4.83338 18.7819C8.23369 16.3273 8.23239 14.7936 4.76652 12.3337L4.16162 11.9839L6.75777 7.48736L6.90251 7.57109C11.1018 9.58116 12.5491 8.97691 12.9808 4.67443V3.89429ZM18.8221 15.577C18.8221 16.4377 18.4802 17.2631 17.8716 17.8717C17.263 18.4803 16.4376 18.8222 15.5769 18.8222C14.7162 18.8222 13.8908 18.4803 13.2822 17.8717C12.6736 17.2631 12.3317 16.4377 12.3317 15.577C12.3317 14.7163 12.6736 13.8909 13.2822 13.2823C13.8908 12.6737 14.7162 12.3318 15.5769 12.3318C16.4376 12.3318 17.263 12.6737 17.8716 13.2823C18.4802 13.8909 18.8221 14.7163 18.8221 15.577ZM20.7692 15.577C20.7692 16.9541 20.2222 18.2747 19.2484 19.2485C18.2747 20.2222 16.954 20.7693 15.5769 20.7693C14.1998 20.7693 12.8791 20.2222 11.9054 19.2485C10.9316 18.2747 10.3846 16.9541 10.3846 15.577C10.3846 14.1999 10.9316 12.8792 11.9054 11.9055C12.8791 10.9317 14.1998 10.3847 15.5769 10.3847C16.954 10.3847 18.2747 10.9317 19.2484 11.9055C20.2222 12.8792 20.7692 14.1999 20.7692 15.577ZM22.0673 15.577C22.0673 19.1616 19.1615 22.0674 15.5769 22.0674C11.9923 22.0674 9.08652 19.1616 9.08652 15.577C9.08652 11.9923 11.9923 9.08659 15.5769 9.08659C19.1615 9.08659 22.0673 11.9923 22.0673 15.577Z" fill="white"/>
</svg>
