<svg width="30" height="30" viewBox="0 0 30 30" fill="none" xmlns="http://www.w3.org/2000/svg">
<path d="M15 27.5C21.9037 27.5 27.5 21.9037 27.5 15C27.5 8.09625 21.9037 2.5 15 2.5C8.09625 2.5 2.5 8.09625 2.5 15C2.5 21.9037 8.09625 27.5 15 27.5ZM16.875 8.75C16.875 9.24728 16.6775 9.72419 16.3258 10.0758C15.9742 10.4275 15.4973 10.625 15 10.625C14.5027 10.625 14.0258 10.4275 13.6742 10.0758C13.3225 9.72419 13.125 9.24728 13.125 8.75C13.125 8.25272 13.3225 7.77581 13.6742 7.42417C14.0258 7.07254 14.5027 6.875 15 6.875C15.4973 6.875 15.9742 7.07254 16.3258 7.42417C16.6775 7.77581 16.875 8.25272 16.875 8.75ZM8.28625 13.035L9.21375 10.7138C11.0262 11.4288 13.0537 11.875 15 11.875C16.95 11.875 18.9662 11.4237 20.7825 10.715C20.7862 10.715 21.73 13.0287 21.6987 13.0412C20.3422 13.5619 18.9343 13.9377 17.4987 14.1625C17.4987 15.25 17.3938 16.3675 17.8963 17.3713L19.8675 21.3162L17.6312 22.4338L15.6913 18.5525C15.6272 18.424 15.5285 18.316 15.4064 18.2404C15.2843 18.1649 15.1436 18.1249 15 18.1249C14.8564 18.1249 14.7157 18.1649 14.5936 18.2404C14.4715 18.316 14.3728 18.424 14.3087 18.5525L12.3675 22.4338L10.1312 21.3162L12.1037 17.3713C12.6062 16.3675 12.5 15.25 12.5 14.1625C11.0712 13.9337 9.63125 13.5725 8.28625 13.035Z" fill="white"/>
</svg>
