<svg width="16" height="16" viewBox="0 0 16 16" fill="none" xmlns="http://www.w3.org/2000/svg">
<path d="M8.00001 1.33337C7.12453 1.33337 6.25762 1.50581 5.44879 1.84084C4.63995 2.17588 3.90502 2.66694 3.28596 3.286C2.03572 4.53624 1.33334 6.23193 1.33334 8.00004C1.33334 10.9467 3.24668 13.4467 5.89334 14.3334C6.22668 14.3867 6.33334 14.18 6.33334 14V12.8734C4.48668 13.2734 4.09334 11.98 4.09334 11.98C3.78668 11.2067 3.35334 11 3.35334 11C2.74668 10.5867 3.40001 10.6 3.40001 10.6C4.06668 10.6467 4.42001 11.2867 4.42001 11.2867C5.00001 12.3 5.98001 12 6.36001 11.84C6.42001 11.4067 6.59334 11.1134 6.78001 10.9467C5.30001 10.78 3.74668 10.2067 3.74668 7.66671C3.74668 6.92671 4.00001 6.33337 4.43334 5.86004C4.36668 5.69337 4.13334 5.00004 4.50001 4.10004C4.50001 4.10004 5.06001 3.92004 6.33334 4.78004C6.86001 4.63337 7.43334 4.56004 8.00001 4.56004C8.56668 4.56004 9.14001 4.63337 9.66668 4.78004C10.94 3.92004 11.5 4.10004 11.5 4.10004C11.8667 5.00004 11.6333 5.69337 11.5667 5.86004C12 6.33337 12.2533 6.92671 12.2533 7.66671C12.2533 10.2134 10.6933 10.7734 9.20668 10.94C9.44668 11.1467 9.66668 11.5534 9.66668 12.1734V14C9.66668 14.18 9.77334 14.3934 10.1133 14.3334C12.76 13.44 14.6667 10.9467 14.6667 8.00004C14.6667 7.12456 14.4942 6.25765 14.1592 5.44882C13.8242 4.63998 13.3331 3.90505 12.7141 3.286C12.095 2.66694 11.3601 2.17588 10.5512 1.84084C9.7424 1.50581 8.87549 1.33337 8.00001 1.33337Z" fill="white"/>
</svg>
