<svg width="16" height="16" viewBox="0 0 16 16" fill="none" xmlns="http://www.w3.org/2000/svg">
<path fill-rule="evenodd" clip-rule="evenodd" d="M11.96 1.62265L12.0867 1.70065L13.4067 2.58065C13.5736 2.69207 13.7133 2.83974 13.8152 3.01266C13.9171 3.18558 13.9787 3.37929 13.9953 3.57932L14 3.68999V12.0493C14 12.3673 13.8863 12.6749 13.6794 12.9164C13.4726 13.158 13.1862 13.3177 12.872 13.3667L12.7687 13.3787L5.08267 13.97C4.87808 13.9857 4.67263 13.954 4.4823 13.8774C4.29197 13.8007 4.1219 13.6811 3.98533 13.528L3.914 13.4407L2.4 11.422C2.16991 11.1151 2.03291 10.7485 2.00533 10.366L2 10.222V3.28399C2.00002 2.96597 2.11371 2.65843 2.32056 2.41687C2.5274 2.1753 2.81377 2.01563 3.128 1.96665L3.23133 1.95465L10.8233 1.37065C11.2186 1.34021 11.614 1.42792 11.9593 1.62265H11.96ZM12.6667 4.71999L5.33333 5.28399V12.6133L12.6667 12.0493V4.71999ZM10.6667 5.66665C10.8435 5.66665 11.013 5.73689 11.1381 5.86192C11.2631 5.98694 11.3333 6.15651 11.3333 6.33332V11C11.3333 11.1768 11.2631 11.3464 11.1381 11.4714C11.013 11.5964 10.8435 11.6667 10.6667 11.6667H10.3333C10.2194 11.6667 10.1074 11.6375 10.008 11.582C9.90856 11.5264 9.82502 11.4463 9.76533 11.3493L8 8.47999V11.3333C8 11.5101 7.92976 11.6797 7.80474 11.8047C7.67971 11.9298 7.51014 12 7.33333 12C7.15652 12 6.98695 11.9298 6.86193 11.8047C6.7369 11.6797 6.66667 11.5101 6.66667 11.3333V6.66665C6.66667 6.48984 6.7369 6.32027 6.86193 6.19525C6.98695 6.07023 7.15652 5.99999 7.33333 5.99999H7.66667C7.78057 5.99996 7.89257 6.02911 7.99201 6.08466C8.09144 6.14021 8.17498 6.22031 8.23467 6.31732L10 9.18599V6.33332C10 6.15651 10.0702 5.98694 10.1953 5.86192C10.3203 5.73689 10.4899 5.66665 10.6667 5.66665ZM10.9253 2.69999L4.16333 3.21999L4.92133 3.97799L12.2533 3.41465L11.3467 2.80999C11.2225 2.72719 11.0741 2.68846 10.9253 2.69999Z" fill="white"/>
</svg>
