<svg width="16" height="16" viewBox="0 0 16 16" fill="none" xmlns="http://www.w3.org/2000/svg">
<path d="M12.8467 3.55329C11.96 3.13996 11 2.83996 10 2.66663C9.98241 2.66688 9.96564 2.67407 9.95333 2.68663C9.83333 2.90663 9.69333 3.19329 9.6 3.41329C8.53932 3.25339 7.46067 3.25339 6.4 3.41329C6.30666 3.18663 6.16666 2.90663 6.04 2.68663C6.03333 2.67329 6.01333 2.66663 5.99333 2.66663C4.99333 2.83996 4.04 3.13996 3.14666 3.55329C3.14 3.55329 3.13333 3.55996 3.12666 3.56663C1.31333 6.27996 0.81333 8.91996 1.06 11.5333C1.06 11.5466 1.06666 11.56 1.08 11.5666C2.28 12.4466 3.43333 12.98 4.57333 13.3333C4.59333 13.34 4.61333 13.3333 4.62 13.32C4.88666 12.9533 5.12666 12.5666 5.33333 12.16C5.34666 12.1333 5.33333 12.1066 5.30666 12.1C4.92666 11.9533 4.56666 11.78 4.21333 11.58C4.18666 11.5666 4.18666 11.5266 4.20666 11.5066C4.28 11.4533 4.35333 11.3933 4.42666 11.34C4.44 11.3266 4.46 11.3266 4.47333 11.3333C6.76666 12.38 9.24 12.38 11.5067 11.3333C11.52 11.3266 11.54 11.3266 11.5533 11.34C11.6267 11.4 11.7 11.4533 11.7733 11.5133C11.8 11.5333 11.8 11.5733 11.7667 11.5866C11.42 11.7933 11.0533 11.96 10.6733 12.1066C10.6467 12.1133 10.64 12.1466 10.6467 12.1666C10.86 12.5733 11.1 12.96 11.36 13.3266C11.38 13.3333 11.4 13.34 11.42 13.3333C12.5667 12.98 13.72 12.4466 14.92 11.5666C14.9333 11.56 14.94 11.5466 14.94 11.5333C15.2333 8.51329 14.4533 5.89329 12.8733 3.56663C12.8667 3.55996 12.86 3.55329 12.8467 3.55329ZM5.68 9.93996C4.99333 9.93996 4.42 9.30663 4.42 8.52663C4.42 7.74663 4.98 7.11329 5.68 7.11329C6.38666 7.11329 6.94666 7.75329 6.94 8.52663C6.94 9.30663 6.38 9.93996 5.68 9.93996ZM10.3267 9.93996C9.64 9.93996 9.06666 9.30663 9.06666 8.52663C9.06666 7.74663 9.62666 7.11329 10.3267 7.11329C11.0333 7.11329 11.5933 7.75329 11.5867 8.52663C11.5867 9.30663 11.0333 9.93996 10.3267 9.93996Z" fill="white"/>
</svg>
