<svg width="16" height="16" viewBox="0 0 16 16" fill="none" xmlns="http://www.w3.org/2000/svg">
<path d="M7.44628 13.9219V11.1167L7.52644 11.0385H8.48854L8.56871 11.1166V13.9219L8.48854 14H7.52655L7.44628 13.9219ZM7.44628 4.88337V2.0782L7.52644 2H8.48854L8.56871 2.07809V4.88337L8.48854 4.96146H7.52655L7.44628 4.88337ZM14.9198 8.5467H11.0802L11 8.46861V7.5315L11.0802 7.4534H14.9198L15 7.5315V8.46872L14.9198 8.5467ZM4.9198 8.5467H1.08017L1 8.46861V7.5315L1.08017 7.4534H4.9198L4.99997 7.5315V8.46872L4.9198 8.5467ZM9.79963 9.94833H8.83972L8.75955 9.87024V7.68129C8.75955 7.29178 8.6025 6.98996 8.12041 6.97941C7.87226 6.97302 7.58845 6.97941 7.28507 6.99113L7.23958 7.03641V9.86917L7.15941 9.94726H6.19928L6.11912 9.86917V6.12987L6.19928 6.05167H8.3596C9.1992 6.05167 9.87968 6.71456 9.87968 7.53256V9.87024L9.79963 9.94833ZM3.9915 4.7503V4.6216L4.65131 3.97885H4.78342L5.79211 4.96146V5.64224L5.69893 5.73301H5.00008L3.9915 4.7503ZM4.78342 12.0201H4.65131L3.9915 11.3773V11.2485L5.00019 10.266H5.69904L5.79211 10.3567V11.0375L4.78342 12.0201Z" fill="white"/>
</svg>
