<svg width="16" height="16" viewBox="0 0 16 16" fill="none" xmlns="http://www.w3.org/2000/svg">
<path d="M1.73335 7.06005L5.58668 3.20005L6.71335 4.33338C6.55335 4.90005 6.81335 5.52005 7.33335 5.82005V9.51338C6.93335 9.74005 6.66668 10.1734 6.66668 10.6667C6.66668 11.0203 6.80716 11.3595 7.05721 11.6095C7.30726 11.8596 7.64639 12 8.00002 12C8.35364 12 8.69278 11.8596 8.94282 11.6095C9.19287 11.3595 9.33335 11.0203 9.33335 10.6667C9.33335 10.1734 9.06668 9.74005 8.66668 9.51338V6.27338L10.0467 7.66671C10 7.76671 10 7.88005 10 8.00005C10 8.35367 10.1405 8.69281 10.3905 8.94285C10.6406 9.1929 10.9797 9.33338 11.3333 9.33338C11.687 9.33338 12.0261 9.1929 12.2762 8.94285C12.5262 8.69281 12.6667 8.35367 12.6667 8.00005C12.6667 7.64642 12.5262 7.30729 12.2762 7.05724C12.0261 6.80719 11.687 6.66671 11.3333 6.66671C11.2133 6.66671 11.1 6.66671 11 6.71338L9.28668 5.00005C9.36946 4.69127 9.33737 4.36294 9.19637 4.07604C9.05537 3.78914 8.81504 3.56315 8.52002 3.44005C8.23335 3.33338 7.93335 3.30671 7.66668 3.38005L6.53335 2.25338L7.06002 1.73338C7.58002 1.20671 8.42002 1.20671 8.94002 1.73338L14.2667 7.06005C14.7933 7.58005 14.7933 8.42005 14.2667 8.94005L8.94002 14.2667C8.42002 14.7934 7.58002 14.7934 7.06002 14.2667L1.73335 8.94005C1.20668 8.42005 1.20668 7.58005 1.73335 7.06005Z" fill="white"/>
</svg>
