<svg width="16" height="16" viewBox="0 0 16 16" fill="none" xmlns="http://www.w3.org/2000/svg">
<path d="M8 15C7.81345 15 7.64 14.948 7.478 14.858L5.82582 13.8423C5.57764 13.7009 5.702 13.6495 5.77673 13.6237C6.11164 13.508 6.17382 13.4823 6.52182 13.276C6.55891 13.2503 6.60909 13.2632 6.64618 13.2889L7.91327 14.0737C7.96236 14.0994 8.02509 14.0994 8.06218 14.0737L13.0187 11.1026C13.0678 11.0769 13.0929 11.0255 13.0929 10.9612V5.0319C13.0929 4.96762 13.0684 4.91619 13.0187 4.89048L8.06218 1.93283C8.01255 1.90712 7.95036 1.90712 7.91327 1.93283L2.95673 4.89048C2.90709 4.91619 2.882 4.98047 2.882 5.0319V10.9612C2.882 11.0126 2.90709 11.0769 2.95673 11.1026L4.31055 11.9132C5.04364 12.2989 5.50291 11.8489 5.50291 11.3989V5.54676C5.50291 5.46962 5.56509 5.39248 5.65236 5.39248H6.28564C6.36036 5.39248 6.43455 5.45676 6.43455 5.54676V11.3983C6.43455 12.4146 5.90055 13.006 4.96891 13.006C4.68309 13.006 4.45945 13.006 3.82618 12.6846L2.522 11.9132C2.36496 11.8205 2.23382 11.6846 2.14207 11.5195C2.05032 11.3545 2.00128 11.1662 2 10.9741V5.04476C2 4.65905 2.19855 4.29907 2.522 4.10621L7.47855 1.13454C7.63998 1.04611 7.81869 1 8 1C8.18131 1 8.36002 1.04611 8.52145 1.13454L13.4785 4.10563C13.8015 4.29848 14 4.65847 14 5.04417V10.9735C14 11.3592 13.8015 11.7192 13.4785 11.9126L8.522 14.8831C8.35725 14.9596 8.17957 14.999 8 14.9988M9.52782 10.9215C7.35418 10.9215 6.90691 9.89294 6.90691 9.01809C6.90691 8.94095 6.96909 8.86381 7.05582 8.86381H7.70164C7.77636 8.86381 7.838 8.91523 7.838 8.99238C7.93782 9.67379 8.22364 10.0081 9.54036 10.0081C10.5838 10.0081 11.0311 9.76378 11.0311 9.18523C11.0311 8.85095 10.9067 8.60667 9.27964 8.43953C7.92527 8.29752 7.08091 7.98955 7.08091 6.87042C7.08091 5.82844 7.92527 5.21073 9.34182 5.21073C10.9318 5.21073 11.7145 5.77701 11.8138 7.01185C11.8126 7.05363 11.7995 7.09401 11.7762 7.12756C11.7516 7.15327 11.7145 7.17898 11.6769 7.17898H11.0311C10.9997 7.17817 10.9694 7.16644 10.9448 7.14557C10.9202 7.12469 10.9027 7.09581 10.8947 7.06327C10.7453 6.35615 10.3602 6.12414 9.34182 6.12414C8.19855 6.12414 8.06218 6.53556 8.06218 6.84471C8.06218 7.21756 8.22364 7.33327 9.764 7.53897C11.2918 7.74468 12.0124 8.04039 12.0124 9.14607C11.9998 10.2786 11.1058 10.9215 9.52782 10.9215Z" fill="white"/>
</svg>
