<svg width="16" height="16" viewBox="0 0 16 16" fill="none" xmlns="http://www.w3.org/2000/svg">
<g clip-path="url(#clip0_4_848)">
<path d="M14.193 3.60015L8.32851 14.0868C8.20739 14.3034 7.89632 14.3047 7.77345 14.0892L1.79264 3.60109C1.65876 3.36634 1.85951 3.08197 2.12564 3.12953L7.99639 4.1789C8.03385 4.18558 8.0722 4.1855 8.10964 4.17865L13.8576 3.13097C14.1228 3.08265 14.3245 3.36484 14.193 3.60015Z" fill="url(#paint0_linear_4_848)"/>
<path d="M10.7929 1.75313L6.45306 2.60344C6.41838 2.61024 6.38695 2.62837 6.3637 2.65498C6.34045 2.68159 6.3267 2.71517 6.32462 2.75044L6.05762 7.25925C6.05616 7.28397 6.06048 7.30869 6.07024 7.33145C6.08 7.35421 6.09493 7.37438 6.11385 7.39036C6.13276 7.40634 6.15514 7.4177 6.1792 7.42353C6.20327 7.42936 6.22836 7.4295 6.25249 7.42394L7.46081 7.14513C7.57387 7.11907 7.67599 7.21863 7.65281 7.33232L7.29381 9.09019C7.26962 9.2085 7.38074 9.30963 7.49624 9.27457L8.24256 9.04782C8.35824 9.01269 8.46943 9.11413 8.44493 9.23256L7.87443 11.9938C7.83874 12.1665 8.06849 12.2607 8.16431 12.1126L8.22831 12.0137L11.7647 4.95619C11.8239 4.83807 11.7218 4.70332 11.592 4.72832L10.3483 4.96838C10.2314 4.99088 10.132 4.88207 10.1649 4.76775L10.9767 1.95363C11.0097 1.83913 10.9099 1.73025 10.7929 1.75313Z" fill="url(#paint1_linear_4_848)"/>
</g>
<defs>
<linearGradient id="paint0_linear_4_848" x1="1.64664" y1="2.75472" x2="8.94545" y2="12.6671" gradientUnits="userSpaceOnUse">
<stop stop-color="#41D1FF"/>
<stop offset="1" stop-color="#BD34FE"/>
</linearGradient>
<linearGradient id="paint1_linear_4_848" x1="7.65943" y1="1.98394" x2="8.97974" y2="11.0413" gradientUnits="userSpaceOnUse">
<stop stop-color="#FFEA83"/>
<stop offset="0.083" stop-color="#FFDD35"/>
<stop offset="1" stop-color="#FFA800"/>
</linearGradient>
<clipPath id="clip0_4_848">
<rect width="16" height="16" fill="white"/>
</clipPath>
</defs>
</svg>
