<svg width="16" height="16" viewBox="0 0 16 16" fill="none" xmlns="http://www.w3.org/2000/svg">
<path d="M10.1667 8.08329L9.71668 7.63329C9.61668 7.53329 9.50001 7.48596 9.36668 7.49129C9.23334 7.49663 9.11668 7.54952 9.01668 7.64996C8.91668 7.7504 8.86668 7.86707 8.86668 7.99996C8.86668 8.13285 8.91668 8.24951 9.01668 8.34996L10.2 9.53329C10.3333 9.66663 10.4889 9.73329 10.6667 9.73329C10.8445 9.73329 11 9.66663 11.1333 9.53329L12.3167 8.34996C12.4167 8.24996 12.4667 8.13329 12.4667 7.99996C12.4667 7.86663 12.4167 7.74996 12.3167 7.64996C12.2167 7.54996 12.0971 7.49996 11.958 7.49996C11.8189 7.49996 11.6996 7.54996 11.6 7.64996L11.1667 8.08329V6.49996C11.1667 6.35551 11.1193 6.23618 11.0247 6.14196C10.93 6.04774 10.8107 6.0004 10.6667 5.99996C10.5227 5.99951 10.4033 6.04685 10.3087 6.14196C10.214 6.23707 10.1667 6.3564 10.1667 6.49996V8.08329ZM2.66668 13.3333C2.30001 13.3333 1.98623 13.2028 1.72534 12.942C1.46445 12.6811 1.33379 12.3671 1.33334 12V3.99996C1.33334 3.63329 1.46401 3.31951 1.72534 3.05863C1.98668 2.79774 2.30045 2.66707 2.66668 2.66663H13.3333C13.7 2.66663 14.014 2.79729 14.2753 3.05863C14.5367 3.31996 14.6671 3.63374 14.6667 3.99996V12C14.6667 12.3666 14.5362 12.6806 14.2753 12.942C14.0145 13.2033 13.7005 13.3337 13.3333 13.3333H2.66668ZM4.66668 6.99996H5.33334V8.49996C5.33334 8.6444 5.38068 8.76396 5.47534 8.85863C5.57001 8.95329 5.68934 9.0004 5.83334 8.99996C5.97734 8.99952 6.0969 8.95218 6.19201 8.85796C6.28712 8.76374 6.33423 8.6444 6.33334 8.49996V6.99996H7.00001V9.49996C7.00001 9.6444 7.04734 9.76396 7.14201 9.85863C7.23668 9.95329 7.35601 10.0004 7.50001 9.99996C7.64401 9.99952 7.76357 9.95218 7.85868 9.85796C7.95379 9.76374 8.0009 9.6444 8.00001 9.49996V6.66663C8.00001 6.47774 7.93601 6.31952 7.80801 6.19196C7.68001 6.0644 7.52179 6.0004 7.33334 5.99996H4.33334C4.14445 5.99996 3.98623 6.06396 3.85868 6.19196C3.73112 6.31996 3.66712 6.47818 3.66668 6.66663V9.49996C3.66668 9.6444 3.71401 9.76396 3.80868 9.85863C3.90334 9.95329 4.02268 10.0004 4.16668 9.99996C4.31068 9.99952 4.43023 9.95218 4.52534 9.85796C4.62045 9.76374 4.66757 9.6444 4.66668 9.49996V6.99996Z" fill="white"/>
</svg>
