<svg width="16" height="16" viewBox="0 0 16 16" fill="none" xmlns="http://www.w3.org/2000/svg">
<path d="M13.5736 3.26884L11.1051 2.07505C10.9655 2.00706 10.8083 1.9845 10.6553 2.01051C10.5023 2.03652 10.3612 2.10981 10.2516 2.22017L5.52346 6.55696L3.46292 4.98622C3.37012 4.9149 3.25536 4.87859 3.13866 4.88362C3.02195 4.88865 2.91071 4.93469 2.82432 5.01373L2.16434 5.61836C2.11276 5.66522 2.07149 5.7224 2.04319 5.78624C2.01489 5.85007 2.00018 5.91915 2 5.98904C1.99983 6.05893 2.01419 6.12809 2.04217 6.19207C2.07015 6.25605 2.11112 6.31344 2.16247 6.36057L3.94965 7.99991L2.16247 9.63926C2.11112 9.68638 2.07015 9.74377 2.04217 9.80775C2.01419 9.87173 1.99983 9.94089 2 10.0108C2.00018 10.0807 2.01489 10.1497 2.04319 10.2136C2.07149 10.2774 2.11276 10.3346 2.16434 10.3815L2.82432 10.9861C2.91071 11.0651 3.02195 11.1112 3.13866 11.1162C3.25536 11.1212 3.37012 11.0849 3.46292 11.0136L5.52346 9.44098L10.2539 13.7796C10.363 13.8901 10.5038 13.9635 10.6565 13.9895C10.8092 14.0155 10.9662 13.9929 11.1055 13.9248L13.5763 12.7291C13.7036 12.6678 13.811 12.5714 13.886 12.4511C13.961 12.3309 14.0005 12.1918 14 12.0498V3.94735C14 3.65861 13.8339 3.39361 13.5744 3.26809L13.5736 3.26884ZM11.0012 10.7392L7.41151 8.00029L11.0012 5.26139V10.7392Z" fill="white"/>
</svg>
