<svg width="12" height="12" viewBox="0 0 12 12" fill="none" xmlns="http://www.w3.org/2000/svg">
<g clip-path="url(#clip0_106_5944)">
<g opacity="0.301">
<path d="M6 12C9.31371 12 12 9.31371 12 6C12 2.68629 9.31371 0 6 0C2.68629 0 0 2.68629 0 6C0 9.31371 2.68629 12 6 12Z" fill="white"/>
<path d="M8.18927 8.57144C8.13895 8.57151 8.08911 8.56163 8.04262 8.54236C7.99614 8.52309 7.95392 8.49481 7.91841 8.45915L3.54184 4.08258C3.47003 4.01073 3.42969 3.91331 3.42969 3.81172C3.42969 3.71014 3.47003 3.61271 3.54184 3.54087C3.61369 3.46905 3.71112 3.42871 3.8127 3.42871C3.91428 3.42871 4.01171 3.46905 4.08356 3.54087L8.46013 7.91744C8.51368 7.97102 8.55015 8.03928 8.56493 8.11358C8.5797 8.18789 8.57211 8.2649 8.54312 8.3349C8.51414 8.40489 8.46505 8.46472 8.40206 8.50682C8.33908 8.54893 8.26503 8.57141 8.18927 8.57144Z" fill="black"/>
<path d="M3.8127 8.57144C3.76238 8.57151 3.71254 8.56163 3.66605 8.54236C3.61956 8.52309 3.57735 8.49481 3.54184 8.45915C3.47003 8.3873 3.42969 8.28988 3.42969 8.18829C3.42969 8.08671 3.47003 7.98928 3.54184 7.91744L7.91841 3.54087C7.99026 3.46905 8.08769 3.42871 8.18927 3.42871C8.29085 3.42871 8.38828 3.46905 8.46013 3.54087C8.53194 3.61271 8.57228 3.71014 8.57228 3.81172C8.57228 3.91331 8.53194 4.01073 8.46013 4.08258L4.08356 8.45915C4.04805 8.49481 4.00583 8.52309 3.95935 8.54236C3.91286 8.56163 3.86302 8.57151 3.8127 8.57144Z" fill="black"/>
</g>
</g>
<defs>
<clipPath id="clip0_106_5944">
<rect width="12" height="12" fill="white"/>
</clipPath>
</defs>
</svg>
