<svg width="12" height="12" viewBox="0 0 12 12" fill="none" xmlns="http://www.w3.org/2000/svg">
<g clip-path="url(#clip0_106_5945)">
<g opacity="0.5">
<path d="M11.453 11.9979C11.3813 11.9979 11.3103 11.9839 11.244 11.9564C11.1778 11.9289 11.1176 11.8887 11.067 11.8379L0.158848 0.930696C0.0656915 0.826719 0.0159095 0.691004 0.0197366 0.551452C0.0235638 0.411899 0.0807092 0.279116 0.179425 0.180401C0.27814 0.0816858 0.410923 0.0245403 0.550475 0.0207132C0.690027 0.0168861 0.825742 0.0666681 0.92972 0.159825L11.8389 11.069C11.9149 11.1454 11.9665 11.2426 11.9874 11.3483C12.0083 11.454 11.9974 11.5635 11.9561 11.663C11.9148 11.7626 11.845 11.8476 11.7555 11.9076C11.666 11.9675 11.5607 11.9996 11.453 11.9999V11.9979Z" fill="white"/>
<path d="M0.545748 11.9979C0.47405 11.998 0.403042 11.9839 0.336809 11.9565C0.270575 11.929 0.210423 11.8888 0.159813 11.838C0.0574841 11.7356 0 11.5968 0 11.452C0 11.3073 0.0574841 11.1685 0.159813 11.0661L11.069 0.159913C11.172 0.06098 11.3098 0.00638409 11.4526 0.00784092C11.5955 0.00929775 11.7321 0.0666912 11.8331 0.167706C11.9341 0.26872 11.9915 0.405306 11.9929 0.548154C11.9944 0.691003 11.9398 0.828731 11.8409 0.931784L0.930684 11.84C0.828382 11.9416 0.689927 11.9984 0.545748 11.9979Z" fill="white"/>
</g>
</g>
<defs>
<clipPath id="clip0_106_5945">
<rect width="12" height="12" fill="white"/>
</clipPath>
</defs>
</svg>
