<svg viewBox="0 0 82 88" fill="none" xmlns="http://www.w3.org/2000/svg"><g fill="#fff" clip-path="url(#ranking_16_svg__clip0_1448_25986)"><path d="M22.306 4.307c-2.315 6.02-5.622 11.604-17.337 12.651l-1.256 8.376h10.234l-9.265 61.77H19.24L31.658 4.308h-9.352zM48.9 44.442h-.707l3.52-23.47c.51-3.402 3.02-6.02 6.902-6.02 3.53 0 5.686 2.094 4.927 7.154L62.01 32.314H75.95l1.544-10.295C79.326 9.805 73.214 2.912 60.07 2.912c-12.087 0-21.215 7.329-23.256 20.94l-6.36 42.401c-2.094 13.96 4.46 20.852 17.429 20.852 12.969 0 21.845-7.416 23.781-20.328L73.6 53.864c1.636-10.906-3.954-16.577-11.188-16.577-6.176 0-10.022 2.705-13.513 7.155zm7.69 24.603c-.524 3.49-3.475 6.107-6.827 6.107-3.794 0-5.849-2.18-5.103-7.154l1.898-12.65c.615-4.101 3.49-6.806 6.931-6.806 3.617 0 5.77 2.705 5.155 6.805L56.59 69.045z"></path></g><defs><clipPath id="ranking_16_svg__clip0_1448_25986"><path fill="#fff" transform="translate(.375 .108)" d="M0 0h81.563v87H0z"></path></clipPath></defs></svg>